<svg width="20" height="20" viewBox="0 0 20 20" fill="none" xmlns="http://www.w3.org/2000/svg">
<path fill-rule="evenodd" clip-rule="evenodd" d="M12.3086 17.6914C12.3086 18.9648 11.2734 20 10 20C8.72656 20 7.69141 18.9648 7.69141 17.6914C7.69141 16.418 8.72656 15.3828 10 15.3828C11.2734 15.3828 12.3086 16.418 12.3086 17.6914ZM12.3086 10C12.3086 11.2734 11.2734 12.3086 10 12.3086C8.72656 12.3086 7.69141 11.2734 7.69141 10C7.69141 8.72656 8.72656 7.69141 10 7.69141C11.2734 7.69141 12.3086 8.72656 12.3086 10ZM12.3086 2.30859C12.3086 3.58203 11.2734 4.61719 10 4.61719C8.72656 4.61719 7.69141 3.58203 7.69141 2.30859C7.69141 1.03516 8.72656 0 10 0C11.2734 0 12.3086 1.03516 12.3086 2.30859Z" fill="#AAAAAA"/>
</svg>
