<svg width="250" height="234" viewBox="0 0 250 234" fill="none" xmlns="http://www.w3.org/2000/svg">
<path d="M110.097 2.48325C89.5949 5.26784 69.3124 12.6732 53.7549 22.9986C44.8849 28.8411 30.7824 42.0188 24.5299 50.3072C15.3699 62.3309 7.88244 78.4311 4.17494 94.1248C2.79494 100.035 2.57494 102.955 2.50244 116.542C2.50244 130.399 2.71994 132.981 4.17494 139.571C13.5499 180.398 44.3749 213.007 85.8149 225.914C100.792 230.532 105.952 231.28 124.637 231.28C142.885 231.348 146.74 230.871 160.987 226.797C204.097 214.57 236.16 181.622 245.755 139.571C247.282 133.048 247.5 130.331 247.5 116.88C247.5 100.236 246.99 96.4328 242.63 83.2527C229.545 43.1051 194.285 13.0773 149.647 4.04376C143.467 2.82199 139.397 2.48093 127.182 2.34543C118.965 2.27769 111.332 2.34543 110.097 2.48325ZM146.447 17.7004C156.77 19.7374 163.315 21.9123 173.347 26.5307C194.067 36.1086 211.442 52.3442 221.692 71.7056C230.125 87.5347 232.815 98.6077 232.887 116.542C232.96 134.272 230.052 146.093 221.91 161.581L217.84 169.19L214.35 166.134C207.007 159.679 190.65 151.529 172.185 145.074L163.025 141.813L157.935 145.822C151.32 150.985 146.085 153.907 139.397 156.147C134.745 157.71 133 157.913 125.002 157.913C117.005 157.913 115.26 157.71 110.607 156.147C103.92 153.905 98.685 150.985 92.0699 145.822L86.9799 141.813L77.8199 145.074C59.3549 151.529 42.9974 159.679 35.5799 166.202L32.0899 169.26L28.0924 161.583C12.0249 130.74 13.1149 95.8932 31.2174 66.4097C40.0874 51.8046 55.3549 37.5383 70.9849 29.2499C82.7624 22.9332 97.9574 18.1092 111.332 16.4109C119.62 15.39 137.94 16.0698 146.447 17.7004Z" fill="#8F8F8F"/>
<path d="M114.823 43.2429C107.625 44.6703 99.1201 48.8822 93.2301 53.9771C74.8376 69.8717 71.4926 94.1925 84.2151 118.443C96.7926 142.423 119.185 153.36 138.595 145.074C153.79 138.62 166.73 122.316 171.675 103.364C173.71 95.6876 173.783 84.5469 171.965 77.8891C164.913 53.024 140.34 38.0802 114.823 43.2429Z" fill="#8F8F8F"/>
</svg>
