<svg width="57" height="54" viewBox="0 0 57 54" fill="none" xmlns="http://www.w3.org/2000/svg">
<path d="M25.1022 0.566158C20.4276 1.20105 15.8032 2.88946 12.2561 5.24366C10.2338 6.57574 7.0184 9.58027 5.59283 11.47C3.50435 14.2114 1.7972 17.8823 0.951887 21.4604C0.637247 22.808 0.587087 23.4737 0.570557 26.5715C0.570557 29.731 0.620147 30.3195 0.951887 31.8221C3.08939 41.1307 10.1175 48.5656 19.5658 51.5084C22.9807 52.5613 24.1572 52.7318 28.4173 52.7318C32.5778 52.7472 33.4567 52.6386 36.7051 51.7097C46.5342 48.9219 53.8445 41.4098 56.0321 31.8221C56.3804 30.335 56.43 29.7156 56.43 26.6487C56.43 22.8538 56.3137 21.9867 55.3196 18.9816C52.3363 9.82794 44.297 2.98161 34.1196 0.921955C32.7106 0.643394 31.7826 0.565628 28.9976 0.534737C27.124 0.519291 25.3838 0.534733 25.1022 0.566158ZM33.39 4.03567C35.7435 4.50011 37.2358 4.99599 39.5232 6.04898C44.2474 8.23273 48.2089 11.9345 50.5459 16.3488C52.4685 19.9579 53.0818 22.4825 53.0983 26.5715C53.1149 30.6141 52.452 33.3092 50.5955 36.8404L49.6675 38.5752L48.8718 37.8785C47.1977 36.4069 43.4682 34.5486 39.2582 33.0769L37.1697 32.3334L36.0092 33.2474C34.5009 34.4245 33.3074 35.0908 31.7826 35.6016C30.7218 35.9579 30.324 36.0042 28.5006 36.0042C26.6771 36.0042 26.2793 35.9579 25.2185 35.6016C23.6937 35.0902 22.5002 34.4245 20.9919 33.2474L19.8314 32.3334L17.7429 33.0769C13.5329 34.5486 9.80342 36.4069 8.11223 37.894L7.31651 38.5912L6.40508 36.841C2.74169 29.8088 2.99021 21.8636 7.11758 15.1414C9.13994 11.8114 12.6209 8.5587 16.1846 6.66896C18.8698 5.22874 22.3343 4.12888 25.3838 3.74166C27.2733 3.5089 31.4503 3.66389 33.39 4.03567Z" fill="white"/>
<path d="M26.1795 9.85938C24.5384 10.1848 22.5993 11.1451 21.2564 12.3068C17.0629 15.9307 16.3002 21.4759 19.201 27.005C22.0686 32.4724 27.1741 34.9662 31.5996 33.0769C35.0641 31.6053 38.0144 27.8881 39.1418 23.567C39.6058 21.8168 39.6224 19.2767 39.208 17.7587C37.6 12.0895 31.9975 8.68228 26.1795 9.85938Z" fill="white"/>
</svg>
